<?xml version="1.0" encoding="utf-8"?>
<!-- Generator: Adobe Illustrator 17.1.0, SVG Export Plug-In . SVG Version: 6.00 Build 0)  -->
<!DOCTYPE svg PUBLIC "-//W3C//DTD SVG 1.1//EN" "http://www.w3.org/Graphics/SVG/1.1/DTD/svg11.dtd">
<svg version="1.1" id="Layer_1" xmlns="http://www.w3.org/2000/svg" xmlns:xlink="http://www.w3.org/1999/xlink" x="0px" y="0px"
	 width="128px" height="128px" viewBox="0 0 128 128" enable-background="new 0 0 128 128" xml:space="preserve">
<g>
	<path fill="#00979D" d="M109.347,64c0-11.878-10.022-21.546-22.342-21.546l0,0c-1.136,0-2.29,0.077-3.438,0.243l0,0
		c-9.57,1.365-15.977,8.253-19.563,13.533l0,0c-3.596-5.281-10.001-12.168-19.573-13.533l0,0c-1.143-0.166-2.298-0.243-3.434-0.243
		l0,0c-12.324,0-22.344,9.667-22.344,21.546l0,0c0,11.884,10.02,21.546,22.335,21.546l0,0c1.143,0,2.301-0.076,3.443-0.236l0,0
		c9.572-1.374,15.977-8.262,19.573-13.548l0,0c3.586,5.286,9.993,12.174,19.563,13.548l0,0c1.147,0.161,2.302,0.236,3.447,0.236l0,0
		C99.327,85.546,109.347,75.884,109.347,64L109.347,64z M43.35,77.743c-0.785,0.111-1.58,0.17-2.362,0.17l0,0
		c-8.103,0-14.695-6.244-14.695-13.914l0,0c0-7.668,6.592-13.917,14.704-13.917l0,0c0.775,0,1.568,0.064,2.355,0.172l0,0
		c9.016,1.287,14.539,10.182,16.41,13.741l0,0C57.889,67.564,52.368,76.456,43.35,77.743L43.35,77.743z M68.243,64
		c1.871-3.563,7.387-12.458,16.407-13.745l0,0c0.782-0.108,1.58-0.172,2.355-0.172l0,0c8.107,0,14.702,6.248,14.702,13.917l0,0
		c0,7.669-6.594,13.914-14.693,13.914l0,0c-0.778,0-1.576-0.059-2.365-0.17l0,0C75.63,76.456,70.11,67.559,68.243,64L68.243,64z"/>
	<polygon fill="#00979D" points="34.84,66.22 48.253,66.22 48.253,66.22 48.253,61.895 48.253,61.895 34.84,61.895 34.84,61.895 
		34.84,66.22 	"/>
	<polygon fill="#00979D" points="88.493,66.22 93.029,66.22 93.029,66.22 93.029,61.895 93.029,61.895 88.493,61.895 88.493,61.895 
		88.493,57.347 88.493,57.347 84.159,57.347 84.159,57.347 84.159,61.895 84.159,61.895 79.617,61.895 79.617,61.895 79.617,66.22 
		79.617,66.22 84.159,66.22 84.159,66.22 84.159,70.77 84.159,70.77 88.493,70.77 88.493,70.77 88.493,66.22 	"/>
</g>
</svg>
