<?xml version="1.0" encoding="utf-8"?>
<!-- Generator: Adobe Illustrator 19.2.1, SVG Export Plug-In . SVG Version: 6.00 Build 0)  -->
<svg version="1.1" id="Layer_1" xmlns="http://www.w3.org/2000/svg" xmlns:xlink="http://www.w3.org/1999/xlink" x="0px" y="0px"
	 width="600px" height="310px" viewBox="0 0 600 310" enable-background="new 0 0 600 310" xml:space="preserve">
<path fill="none" stroke="#E75300" stroke-width="3.2476" stroke-miterlimit="10" d="M358.705,117.351
	c27.502,0,49.917,22.176,51.015,49.944l0,0c0,6.851-5.421,12.39-12.125,12.39c-6.71,0-12.101-5.617-12.101-12.46v0.07
	c1.102-27.768,23.523-49.944,51.015-49.944"/>
<path fill="none" stroke="#8C7965" stroke-width="3.2476" stroke-miterlimit="10" d="M349.187,250.677
	c0,6.705-5.465,12.141-12.201,12.141h-67.447c-6.744,0-12.201-5.436-12.201-12.141V55.6c0-6.711,5.457-12.147,12.201-12.147h67.447
	c6.738,0,12.201,5.436,12.201,12.147V250.677L349.187,250.677z"/>
<g>
	<polyline fill="none" stroke="#8C7965" stroke-width="3.2476" stroke-miterlimit="10" points="256.73,246.612 248.179,246.612 
		248.179,231.274 256.73,231.274 	"/>
</g>
<g>
	<polyline fill="none" stroke="#8C7965" stroke-width="3.2476" stroke-miterlimit="10" points="256.73,222.324 248.179,222.324 
		248.179,206.981 256.73,206.981 	"/>
</g>
<g>
	<polyline fill="none" stroke="#8C7965" stroke-width="3.2476" stroke-miterlimit="10" points="256.73,198.032 248.179,198.032 
		248.179,182.688 256.73,182.688 	"/>
</g>
<g>
	<polyline fill="none" stroke="#8C7965" stroke-width="3.2476" stroke-miterlimit="10" points="256.73,173.745 248.179,173.745 
		248.179,158.402 256.73,158.402 	"/>
</g>
<g>
	<polyline fill="none" stroke="#8C7965" stroke-width="3.2476" stroke-miterlimit="10" points="256.73,149.446 248.179,149.446 
		248.179,134.1 256.73,134.1 	"/>
</g>
<g>
	<polyline fill="none" stroke="#8C7965" stroke-width="3.2476" stroke-miterlimit="10" points="256.73,125.159 248.179,125.159 
		248.179,109.821 256.73,109.821 	"/>
</g>
<g>
	<polyline fill="none" stroke="#8C7965" stroke-width="3.2476" stroke-miterlimit="10" points="256.73,100.866 248.179,100.866 
		248.179,85.523 256.73,85.523 	"/>
</g>
<g>
	<polyline fill="none" stroke="#8C7965" stroke-width="3.2476" stroke-miterlimit="10" points="256.73,76.579 248.179,76.579 
		248.179,61.235 256.73,61.235 	"/>
</g>
<g>
	<polyline fill="none" stroke="#8C7965" stroke-width="3.2476" stroke-miterlimit="10" points="349.758,246.612 358.747,246.612 
		358.747,231.274 349.758,231.274 	"/>
</g>
<g>
	<polyline fill="none" stroke="#8C7965" stroke-width="3.2476" stroke-miterlimit="10" points="349.758,222.324 358.747,222.324 
		358.747,206.981 349.758,206.981 	"/>
</g>
<g>
	<polyline fill="none" stroke="#8C7965" stroke-width="3.2476" stroke-miterlimit="10" points="349.758,198.032 358.747,198.032 
		358.747,182.688 349.758,182.688 	"/>
</g>
<g>
	<polyline fill="none" stroke="#8C7965" stroke-width="3.2476" stroke-miterlimit="10" points="349.758,173.745 358.747,173.745 
		358.747,158.402 349.758,158.402 	"/>
</g>
<g>
	<polyline fill="none" stroke="#8C7965" stroke-width="3.2476" stroke-miterlimit="10" points="349.758,149.446 358.747,149.446 
		358.747,134.1 349.758,134.1 	"/>
</g>
<g>
	<polyline fill="none" stroke="#8C7965" stroke-width="3.2476" stroke-miterlimit="10" points="349.758,125.159 358.747,125.159 
		358.747,109.821 349.758,109.821 	"/>
</g>
<g>
	<polyline fill="none" stroke="#8C7965" stroke-width="3.2476" stroke-miterlimit="10" points="349.758,100.866 358.747,100.866 
		358.747,85.523 349.758,85.523 	"/>
</g>
<g>
	<polyline fill="none" stroke="#8C7965" stroke-width="3.2476" stroke-miterlimit="10" points="349.758,76.579 358.747,76.579 
		358.747,61.235 349.758,61.235 	"/>
</g>
<path fill="none" stroke="#8C7965" stroke-width="3.2476" stroke-miterlimit="10" d="M247.299,117.876
	c-27.881,0.006-50.613-22.188-51.73-50.002l0,0c0-6.845,5.5-12.398,12.296-12.398c6.802,0,12.266,5.629,12.266,12.474V67.87
	c-1.116,27.812-23.847,50.008-51.726,50.002"/>
<path fill="none" stroke="#8C7965" stroke-width="3.2476" stroke-miterlimit="10" d="M589.09,67.875
	c-1.126,27.812-24.023,50.008-52.105,50.002"/>
<path fill="none" stroke="#8C7965" stroke-width="3.2476" stroke-miterlimit="10" d="M64.252,117.515
	c-28.079,0.008-50.981-22.202-52.103-50.008l0,0"/>
<polyline fill="none" stroke="#8C7965" stroke-width="3.2476" stroke-miterlimit="10" points="467.558,162.235 467.558,292.837 
	460.146,292.837 "/>
<polyline fill="none" stroke="#8C7965" stroke-width="3.2476" stroke-miterlimit="10" points="505.102,162.235 505.102,292.837 
	497.686,292.837 "/>
<path fill="none" stroke="#007481" stroke-width="3.2476" stroke-miterlimit="10" d="M538.617,103.876
	c0-28.803-23.347-52.132-52.142-52.132c-28.801,0-52.148,23.327-52.148,52.132c0,17.3,8.454,32.579,21.418,42.069v15.852h23.196
	v-10.403c2.468,0.367,4.964,0.605,7.534,0.605c2.561,0,5.068-0.238,7.532-0.605v10.403h23.192v-15.847
	C530.163,136.455,538.617,121.176,538.617,103.876z"/>
<polyline fill="none" stroke="#8C7965" stroke-width="3.2476" stroke-miterlimit="10" points="147.989,145.039 147.989,292.837 
	140.58,292.837 "/>
<polyline fill="none" stroke="#8C7965" stroke-width="3.2476" stroke-miterlimit="10" points="86.29,145.039 86.29,292.837 
	78.882,292.837 "/>
<path fill="none" stroke="#E75300" stroke-width="3.2476" stroke-miterlimit="10" d="M168.762,133.728
	c0,6.703-5.44,12.147-12.145,12.147h-80c-6.705,0-12.145-5.442-12.145-12.147V31.873c0-6.715,5.44-12.153,12.145-12.153h80
	c6.705,0,12.145,5.436,12.145,12.153L168.762,133.728L168.762,133.728z"/>
<line fill="none" stroke="#E75300" stroke-width="3.2476" stroke-miterlimit="10" x1="64.472" y1="37.083" x2="168.762" y2="37.083"/>
<g id="INSERT_15_">
	<g id="CIRCLE_15_">
		<path fill="#E75300" d="M488.627,115.521c1.204-1.184,1.19-3.114,0-4.316c-1.188-1.184-3.114-1.184-4.316,0
			c-1.19,1.204-1.19,3.133,0,4.316C485.508,116.725,487.441,116.725,488.627,115.521L488.627,115.521L488.627,115.521z"/>
	</g>
</g>
<polygon fill="#007481" points="449.534,111.411 453.668,111.411 453.668,107.268 457.604,107.268 457.604,111.411 461.748,111.411 
	461.748,115.336 457.604,115.336 457.604,119.485 453.668,119.485 453.668,115.336 449.534,115.336 "/>
<polygon fill="#007481" points="511.197,111.411 515.327,111.411 515.327,107.268 519.265,107.268 519.265,111.411 523.408,111.411 
	523.408,115.336 519.265,115.336 519.265,119.485 515.327,119.485 515.327,115.336 511.197,115.336 "/>
<g>
	<path fill="#8C7965" d="M276.746,109.049c-2.377-2.381-6.23-2.381-8.633,0c-2.379,2.393-2.379,6.259,0,8.633
		c2.387,2.393,6.257,2.393,8.633,0C279.145,115.289,279.125,111.442,276.746,109.049z M272.43,116.436l-3.053-3.063l3.053-3.049
		l3.059,3.049L272.43,116.436z"/>
</g>
<g>
	<path fill="#8C7965" d="M338.81,109.049c-2.379-2.381-6.234-2.381-8.637,0c-2.377,2.393-2.377,6.259,0,8.633
		c2.389,2.393,6.257,2.393,8.637,0C341.211,115.289,341.186,111.442,338.81,109.049z M334.495,116.436l-3.057-3.063l3.057-3.049
		l3.053,3.049L334.495,116.436z"/>
</g>
<polyline fill="#007481" points="303.463,116.436 300.41,113.371 303.463,110.322 306.52,113.371 "/>
<rect x="79.679" y="111.417" fill="#E75300" width="12.214" height="3.925"/>
<rect x="141.338" y="111.417" fill="#E75300" width="12.214" height="3.925"/>
<path fill="#EDAA00" d="M110.508,113.385c-0.016,3.365,2.715,6.086,6.092,6.1c3.387-0.006,6.11-2.741,6.11-6.106L110.508,113.385z"
	/>
</svg>
